<?xml version="1.0" encoding="iso-8859-1"?>
<!-- Generator: Adobe Illustrator 19.0.0, SVG Export Plug-In . SVG Version: 6.00 Build 0)  -->
<svg version="1.1" id="Capa_1" xmlns="http://www.w3.org/2000/svg" xmlns:xlink="http://www.w3.org/1999/xlink" x="0px" y="0px"
	 viewBox="0 0 512 512" style="enable-background:new 0 0 512 512;" xml:space="preserve">
<g>
	<g>
		<path d="M438,0H74C57.458,0,44,13.458,44,30v452c0,16.542,13.458,30,30,30h364c16.542,0,30-13.458,30-30V30
			C468,13.458,454.542,0,438,0z M377,35.436l55.691,55.691H387c-5.514,0-10-4.486-10-10V35.436z M448,482c0,5.514-4.486,10-10,10H74
			c-5.514,0-10-4.486-10-10V30c0-5.514,4.486-10,10-10h283v61.127c0,16.542,13.458,30,30,30h61V482z M448,78.151L389.849,20H438
			c5.514,0,10,4.486,10,10V78.151z"/>
	</g>
</g>
<g>
	<g>
		<path d="M407.699,188H296.282c-5.523,0-10,4.477-10,10s4.477,10,10,10h111.417c5.523,0,10-4.477,10-10S413.222,188,407.699,188z"
			/>
	</g>
</g>
<g>
	<g>
		<path d="M303.35,142.93c-1.86-1.86-4.44-2.93-7.07-2.93s-5.21,1.07-7.07,2.93s-2.93,4.44-2.93,7.07s1.07,5.21,2.93,7.07
			s4.44,2.93,7.07,2.93s5.21-1.07,7.07-2.93c1.86-1.86,2.93-4.44,2.93-7.07S305.21,144.79,303.35,142.93z"/>
	</g>
</g>
<g>
	<g>
		<path d="M407.699,140h-71.493c-5.523,0-10,4.477-10,10s4.477,10,10,10h71.493c5.523,0,10-4.477,10-10S413.222,140,407.699,140z"/>
	</g>
</g>
<g>
	<g>
		<path d="M407.699,236H299.365c-5.523,0-10,4.477-10,10s4.477,10,10,10h108.333c5.523,0,10-4.477,10-10S413.222,236,407.699,236z"
			/>
	</g>
</g>
<g>
	<g>
		<path d="M410.269,284H104.301c-5.523,0-10,4.477-10,10s4.477,10,10,10h305.968c5.523,0,10-4.477,10-10S415.792,284,410.269,284z"
			/>
	</g>
</g>
<g>
	<g>
		<path d="M407.698,332H104.301c-5.523,0-10,4.477-10,10s4.477,10,10,10h303.397c5.523,0,10-4.477,10-10S413.221,332,407.698,332z"
			/>
	</g>
</g>
<g>
	<g>
		<path d="M410.269,380H104.301c-5.523,0-10,4.477-10,10s4.477,10,10,10h305.968c5.523,0,10-4.477,10-10S415.792,380,410.269,380z"
			/>
	</g>
</g>
<g>
	<g>
		<path d="M417.34,430.93c-1.86-1.86-4.44-2.93-7.07-2.93s-5.21,1.07-7.07,2.93s-2.93,4.44-2.93,7.07s1.07,5.21,2.93,7.07
			c1.86,1.86,4.44,2.93,7.07,2.93s5.21-1.07,7.07-2.93c1.86-1.86,2.93-4.44,2.93-7.07S419.2,432.79,417.34,430.93z"/>
	</g>
</g>
<g>
	<g>
		<path d="M370.006,428H104.301c-5.523,0-10,4.477-10,10s4.477,10,10,10h265.705c5.523,0,10-4.477,10-10S375.529,428,370.006,428z"
			/>
	</g>
</g>
<g>
	<g>
		<path d="M248.172,64H101.731c-5.523,0-10,4.477-10,10l-0.129,172c0,5.523,4.477,10,10,10h146.57c5.523,0,10-4.477,10-10V74
			C258.172,68.477,253.695,64,248.172,64z M238.172,236h-126.57l0.129-12.731C113.35,201.346,131.692,184,154.021,184h41.732
			c23.39,0,42.419,19.029,42.419,42.419V236z M158.887,148v-6.5c0-8.822,7.178-16,16-16c8.822,0,16,7.178,16,16v6.5
			c0,8.822-7.178,16-16,16C166.065,164,158.887,156.822,158.887,148z M238.172,180.685c-8.618-7.999-19.489-13.589-31.545-15.717
			c2.715-5.059,4.26-10.836,4.26-16.968v-6.5c0-19.851-16.149-36-36-36c-19.851,0-36,16.149-36,36v6.5
			c0,6.132,1.545,11.909,4.26,16.968c-11.995,2.117-22.819,7.659-31.416,15.593V84h126.441V180.685z"/>
	</g>
</g>
<g>
</g>
<g>
</g>
<g>
</g>
<g>
</g>
<g>
</g>
<g>
</g>
<g>
</g>
<g>
</g>
<g>
</g>
<g>
</g>
<g>
</g>
<g>
</g>
<g>
</g>
<g>
</g>
<g>
</g>
</svg>
