<svg id="Layer_35" enable-background="new 0 0 64 64" height="512" viewBox="0 0 64 64" width="512" xmlns="http://www.w3.org/2000/svg"><path d="m48.921 43h3.079v5c0 4.962-4.037 9-9 9h-27c-4.625 0-8.445-3.506-8.944-8h-4.018c.513 6.703 6.13 12 12.962 12h27c7.168 0 13-5.832 13-13v-5h3.079l-5.079-7.256z"/><path d="m15.079 21h-3.079v-5c0-4.962 4.037-9 9-9h27c4.625 0 8.445 3.506 8.944 8h4.018c-.513-6.703-6.13-12-12.962-12h-27c-7.168 0-13 5.832-13 13v5h-3.079l5.079 7.256z"/><path d="m41 11h2v2h-2z"/><path d="m53 17v-1c0-2.757-2.243-5-5-5h-3v2h3c1.654 0 3 1.346 3 3v1z"/><path d="m30.703 51-4.326-16.437c-.504.302-.987.635-1.435 1.011l-.86 7.734 3.327 1.109-1.229 2.459 3.3 4.125h1.223z"/><path d="m21 44v7h5.919l-3.1-3.875.771-1.541-2.673-.891.714-6.427c-1.028 1.672-1.631 3.631-1.631 5.734z"/><path d="m43 44c0-2.103-.603-4.062-1.631-5.734l.714 6.427-2.673.891.771 1.541-3.1 3.875h5.919z"/><path d="m37.819 46.875-1.229-2.459 3.327-1.109-.86-7.734c-.448-.376-.931-.709-1.435-1.011l-4.325 16.438h1.222z"/><path d="m35.786 33.685c-1.183-.435-2.454-.685-3.786-.685s-2.603.25-3.786.685l3.786 14.387z"/><circle cx="32" cy="23" r="8"/></svg>