<svg id="bold" enable-background="new 0 0 24 24" height="512" viewBox="0 0 24 24" width="512" xmlns="http://www.w3.org/2000/svg"><path d="m23.503 13.337-1.341-1.341c-.662-.66-1.738-.661-2.4 0l-7.372 7.372c-.104.104-.176.238-.205.383l-.67 3.351c-.093.466.263.898.735.898.049 0 .098-.005.147-.015l3.351-.67c.145-.029.278-.1.383-.205l7.372-7.372c.662-.662.662-1.738 0-2.401z"/><path d="m12.25 15h-7.5c-.414 0-.75-.336-.75-.75s.336-.75.75-.75h7.5c.414 0 .75.336.75.75s-.336.75-.75.75z"/><path d="m11.25 18h-6.5c-.414 0-.75-.336-.75-.75s.336-.75.75-.75h6.5c.414 0 .75.336.75.75s-.336.75-.75.75z"/><path d="m9.25 21h-6.5c-1.517 0-2.75-1.233-2.75-2.75v-15.5c0-1.517 1.233-2.75 2.75-2.75h11.5c1.517 0 2.75 1.233 2.75 2.75v8.5c0 .414-.336.75-.75.75s-.75-.336-.75-.75v-8.5c0-.689-.561-1.25-1.25-1.25h-11.5c-.689 0-1.25.561-1.25 1.25v15.5c0 .689.561 1.25 1.25 1.25h6.5c.414 0 .75.336.75.75s-.336.75-.75.75z"/><circle cx="8.5" cy="5" r="2"/><path d="m11.75 12h-6.5c-.414 0-.75-.336-.75-.75v-.5c0-1.517 1.233-2.75 2.75-2.75h2.5c1.517 0 2.75 1.233 2.75 2.75v.5c0 .414-.336.75-.75.75z"/></svg>