<?xml version="1.0" encoding="iso-8859-1"?>
<!-- Generator: Adobe Illustrator 19.0.0, SVG Export Plug-In . SVG Version: 6.00 Build 0)  -->
<svg xmlns="http://www.w3.org/2000/svg" xmlns:xlink="http://www.w3.org/1999/xlink" version="1.1" id="Layer_1" x="0px" y="0px" viewBox="0 0 512 512" style="enable-background:new 0 0 512 512;" xml:space="preserve" width="512" height="512">
<path d="M429.948,415.806c7.811,7.811,7.811,20.475,0,28.285c-23.394,23.393-61.459,23.393-84.853,0l-7.122-7.122  c-1.874-1.875-4.762-2.39-7.355-1.312l-0.432,0.178c-2.518,1.04-4.187,3.442-4.187,6.092V452c0,33.084-26.916,60-60,60h-20  c-33.084,0-60-26.916-60-60v-10.073c0-2.649-1.669-5.052-4.252-6.118l-0.367-0.151c-2.594-1.078-5.482-0.563-7.355,1.312  l-7.122,7.122c-23.394,23.393-61.459,23.393-84.853,0L67.91,429.947c-11.333-11.331-17.574-26.398-17.574-42.426  c0-16.026,6.241-31.094,17.574-42.426l7.122-7.122c1.873-1.873,2.388-4.761,1.311-7.354l-0.161-0.391  c-1.057-2.561-3.458-4.229-6.108-4.229H60c-33.084,0-60-26.916-60-60v-20c0-33.084,26.916-60,60-60h10.074  c2.649,0,5.05-1.668,6.117-4.251l0.151-0.364c1.079-2.598,0.564-5.484-1.309-7.357l-7.123-7.123  c-11.333-11.332-17.574-26.399-17.574-42.426c0-16.027,6.241-31.095,17.574-42.427L82.051,67.91  c11.333-11.333,26.4-17.574,42.427-17.574c16.027,0,31.094,6.241,42.427,17.574l7.122,7.121c1.875,1.875,4.761,2.388,7.355,1.312  l0.432-0.178c2.518-1.04,4.187-3.442,4.187-6.092V60c0-33.084,26.916-60,60-60h20c33.084,0,60,26.916,60,60v10.073  c0,2.649,1.669,5.052,4.252,6.118l0.367,0.151c2.594,1.076,5.481,0.563,7.355-1.312l7.122-7.122c7.811-7.811,20.474-7.811,28.284,0  s7.811,20.475,0,28.285l-7.122,7.122c-13.36,13.357-33.356,17.275-50.953,9.979l-0.257-0.105C297.376,105.891,286,88.977,286,70.073  V60c0-11.028-8.972-20-20-20h-20c-11.028,0-20,8.972-20,20v10.073c0,18.903-11.376,35.817-28.982,43.089l-0.322,0.133  c-17.597,7.299-37.594,3.381-50.953-9.979l-7.123-7.122c-3.777-3.778-8.8-5.858-14.142-5.858c-5.342,0-10.364,2.08-14.142,5.858  l-14.142,14.142c-3.778,3.778-5.858,8.8-5.858,14.143c0,5.342,2.081,10.364,5.858,14.142l7.122,7.122  c13.367,13.366,17.279,33.379,9.967,50.983l-0.111,0.269C105.892,214.623,88.979,226,70.074,226H60c-11.028,0-20,8.972-20,20v20  c0,11.028,8.972,20,20,20h10.073c18.905,0,35.819,11.377,43.089,28.984l0.146,0.352c7.287,17.543,3.375,37.555-9.992,50.922  l-7.123,7.122c-3.777,3.777-5.857,8.8-5.857,14.142c0,5.343,2.08,10.364,5.857,14.142l14.143,14.144  c7.797,7.797,20.485,7.8,28.284-0.001l7.122-7.122c13.359-13.358,33.355-17.275,50.953-9.979l0.257,0.105  C214.624,406.109,226,423.023,226,441.927V452c0,11.028,8.972,20,20,20h20c11.028,0,20-8.972,20-20v-10.073  c0-18.903,11.376-35.817,28.982-43.089l0.323-0.133c17.597-7.297,37.594-3.379,50.953,9.979l7.122,7.122  c7.798,7.799,20.486,7.799,28.284,0C409.475,407.997,422.138,407.997,429.948,415.806z M452,186c-11.046,0-20,8.954-20,20  s8.954,20,20,20c11.028,0,20,8.972,20,20v20c0,11.028-8.972,20-20,20h-10.073c-18.905,0-35.819,11.377-43.098,29.006l-0.111,0.27  c-7.312,17.604-3.399,37.615,9.967,50.982c3.906,3.906,9.023,5.858,14.143,5.858c5.118,0,10.237-1.953,14.142-5.857  c7.811-7.811,7.811-20.474,0.001-28.284c-1.874-1.874-2.389-4.762-1.287-7.416l0.127-0.308c1.066-2.583,3.467-4.251,6.117-4.251H452  c33.084,0,60-26.916,60-60v-20C512,212.916,485.084,186,452,186z M256.496,287.983c-5.441,0.223-10.63-1.729-14.524-5.432  l-71.132-68.183c-7.976-7.644-20.635-7.376-28.278,0.599s-7.375,20.635,0.599,28.278l71.192,68.239  c11.259,10.704,25.831,16.516,41.267,16.516c0.826,0,1.654-0.017,2.484-0.05c16.353-0.658,31.37-7.734,42.287-19.928  c0.238-0.265,0.468-0.536,0.691-0.813L490.454,71.527c6.918-8.61,5.547-21.199-3.063-28.118c-8.612-6.919-21.2-5.547-28.118,3.063  L270.291,281.669C266.679,285.532,261.798,287.771,256.496,287.983z"/>















</svg>
