<svg xmlns="http://www.w3.org/2000/svg" style="display: none;"><symbol id="download" viewBox="0 0 475.078 475.077"><title>download</title><path d="M467.083,318.627c-5.324-5.328-11.8-7.994-19.41-7.994H315.195l-38.828,38.827c-11.04,10.657-23.982,15.988-38.828,15.988 c-14.843,0-27.789-5.324-38.828-15.988l-38.543-38.827H27.408c-7.612,0-14.083,2.669-19.414,7.994 C2.664,323.955,0,330.427,0,338.044v91.358c0,7.614,2.664,14.085,7.994,19.414c5.33,5.328,11.801,7.99,19.414,7.99h420.266 c7.61,0,14.086-2.662,19.41-7.99c5.332-5.329,7.994-11.8,7.994-19.414v-91.358C475.078,330.427,472.416,323.955,467.083,318.627z M360.025,414.841c-3.621,3.617-7.905,5.424-12.854,5.424s-9.227-1.807-12.847-5.424c-3.614-3.617-5.421-7.898-5.421-12.844 c0-4.948,1.807-9.236,5.421-12.847c3.62-3.62,7.898-5.431,12.847-5.431s9.232,1.811,12.854,5.431 c3.613,3.61,5.421,7.898,5.421,12.847C365.446,406.942,363.638,411.224,360.025,414.841z M433.109,414.841 c-3.614,3.617-7.898,5.424-12.848,5.424c-4.948,0-9.229-1.807-12.847-5.424c-3.613-3.617-5.42-7.898-5.42-12.844 c0-4.948,1.807-9.236,5.42-12.847c3.617-3.62,7.898-5.431,12.847-5.431c4.949,0,9.233,1.811,12.848,5.431 c3.617,3.61,5.427,7.898,5.427,12.847C438.536,406.942,436.729,411.224,433.109,414.841z"/><path d="M224.692,323.479c3.428,3.613,7.71,5.421,12.847,5.421c5.141,0,9.418-1.808,12.847-5.421l127.907-127.908 c5.899-5.519,7.234-12.182,3.997-19.986c-3.23-7.421-8.847-11.132-16.844-11.136h-73.091V36.543c0-4.948-1.811-9.231-5.421-12.847 c-3.62-3.617-7.901-5.426-12.847-5.426h-73.096c-4.946,0-9.229,1.809-12.847,5.426c-3.615,3.616-5.424,7.898-5.424,12.847V164.45 h-73.089c-7.998,0-13.61,3.715-16.846,11.136c-3.234,7.801-1.903,14.467,3.999,19.986L224.692,323.479z"/></symbol><symbol id="exit" viewBox="0 0 511 512"><title>exit</title><path d="m361.5 392v40c0 44.113281-35.886719 80-80 80h-201c-44.113281 0-80-35.886719-80-80v-352c0-44.113281 35.886719-80 80-80h201c44.113281 0 80 35.886719 80 80v40c0 11.046875-8.953125 20-20 20s-20-8.953125-20-20v-40c0-22.054688-17.945312-40-40-40h-201c-22.054688 0-40 17.945312-40 40v352c0 22.054688 17.945312 40 40 40h201c22.054688 0 40-17.945312 40-40v-40c0-11.046875 8.953125-20 20-20s20 8.953125 20 20zm136.355469-170.355469-44.785157-44.785156c-7.8125-7.8125-20.476562-7.8125-28.285156 0-7.8125 7.808594-7.8125 20.472656 0 28.28125l31.855469 31.859375h-240.140625c-11.046875 0-20 8.953125-20 20s8.953125 20 20 20h240.140625l-31.855469 31.859375c-7.8125 7.808594-7.8125 20.472656 0 28.28125 3.90625 3.90625 9.023438 5.859375 14.140625 5.859375 5.121094 0 10.238281-1.953125 14.144531-5.859375l44.785157-44.785156c19.496093-19.496094 19.496093-51.214844 0-70.710938zm0 0"/></symbol><symbol id="admin" viewBox="0 0 474.565 474.565"><title>admin</title><path d="M255.204,102.3c-0.606-11.321-12.176-9.395-23.465-9.395C240.078,95.126,247.967,98.216,255.204,102.3z"/><path d="M134.524,73.928c-43.825,0-63.997,55.471-28.963,83.37c11.943-31.89,35.718-54.788,66.886-63.826 C163.921,81.685,150.146,73.928,134.524,73.928z"/><path d="M43.987,148.617c1.786,5.731,4.1,11.229,6.849,16.438L36.44,179.459c-3.866,3.866-3.866,10.141,0,14.015l25.375,25.383 c1.848,1.848,4.38,2.888,7.019,2.888c2.61,0,5.125-1.04,7.005-2.888l14.38-14.404c2.158,1.142,4.55,1.842,6.785,2.827 c0-0.164-0.016-0.334-0.016-0.498c0-11.771,1.352-22.875,3.759-33.302c-17.362-11.174-28.947-30.57-28.947-52.715 c0-34.592,28.139-62.739,62.723-62.739c23.418,0,43.637,13.037,54.43,32.084c11.523-1.429,22.347-1.429,35.376,1.033 c-1.676-5.07-3.648-10.032-6.118-14.683l14.396-14.411c1.878-1.856,2.918-4.38,2.918-7.004c0-2.625-1.04-5.148-2.918-7.004 l-25.361-25.367c-1.94-1.941-4.472-2.904-7.003-2.904c-2.532,0-5.063,0.963-6.989,2.904l-14.442,14.411 c-5.217-2.764-10.699-5.078-16.444-6.825V9.9c0-5.466-4.411-9.9-9.893-9.9h-35.888c-5.451,0-9.909,4.434-9.909,9.9v20.359 c-5.73,1.747-11.213,4.061-16.446,6.825L75.839,22.689c-1.942-1.941-4.473-2.904-7.005-2.904c-2.531,0-5.077,0.963-7.003,2.896 L36.44,48.048c-1.848,1.864-2.888,4.379-2.888,7.012c0,2.632,1.04,5.148,2.888,7.004l14.396,14.403 c-2.75,5.218-5.063,10.708-6.817,16.438H23.675c-5.482,0-9.909,4.441-9.909,9.915v35.889c0,5.458,4.427,9.908,9.909,9.908H43.987z"/><path d="M354.871,340.654c15.872-8.705,26.773-25.367,26.773-44.703c0-28.217-22.967-51.168-51.184-51.168 c-9.923,0-19.118,2.966-26.975,7.873c-4.705,18.728-12.113,36.642-21.803,52.202C309.152,310.022,334.357,322.531,354.871,340.654z "/><path d="M460.782,276.588c0-5.909-4.799-10.693-10.685-10.693H428.14c-1.896-6.189-4.411-12.121-7.393-17.75l15.544-15.544 c2.02-2.004,3.137-4.721,3.137-7.555c0-2.835-1.118-5.553-3.137-7.563l-27.363-27.371c-2.08-2.09-4.829-3.138-7.561-3.138 c-2.734,0-5.467,1.048-7.547,3.138l-15.576,15.552c-5.623-2.982-11.539-5.481-17.751-7.369v-21.958 c0-5.901-4.768-10.685-10.669-10.685H311.11c-2.594,0-4.877,1.04-6.739,2.578c3.26,11.895,5.046,24.793,5.046,38.552 c0,8.735-0.682,17.604-1.956,26.423c7.205-2.656,14.876-4.324,22.999-4.324c36.99,0,67.086,30.089,67.086,67.07 c0,23.637-12.345,44.353-30.872,56.303c13.48,14.784,24.195,32.324,31.168,51.976c1.148,0.396,2.344,0.684,3.54,0.684 c2.733,0,5.467-1.04,7.563-3.13l27.379-27.371c2.004-2.004,3.106-4.721,3.106-7.555s-1.102-5.551-3.106-7.563l-15.576-15.552 c2.982-5.621,5.497-11.555,7.393-17.75h21.957c2.826,0,5.575-1.118,7.563-3.138c2.004-1.996,3.138-4.72,3.138-7.555 L460.782,276.588z"/><path d="M376.038,413.906c-16.602-48.848-60.471-82.445-111.113-87.018c-16.958,17.958-37.954,29.351-61.731,29.351 c-23.759,0-44.771-11.392-61.713-29.351c-50.672,4.573-94.543,38.17-111.145,87.026l-9.177,27.013 c-2.625,7.773-1.368,16.338,3.416,23.007c4.783,6.671,12.486,10.631,20.685,10.631h315.853c8.215,0,15.918-3.96,20.702-10.631 c4.767-6.669,6.041-15.234,3.4-23.007L376.038,413.906z"/><path d="M120.842,206.782c0,60.589,36.883,125.603,82.352,125.603c45.487,0,82.368-65.014,82.368-125.603 C285.563,81.188,120.842,80.939,120.842,206.782z"/></symbol><symbol id="doctor" viewBox="0 0 500.004 500.004"><title>doctor</title><g> <g> <path d="M250,0c-53.876,0-97.696,43.832-97.696,97.708v50.62c0,53.88,43.82,97.712,97.696,97.712 c53.88,0,97.696-43.832,97.696-97.712v-50.62C347.697,43.832,303.88,0,250,0z"/> </g> </g><g> <g> <path d="M465.456,373.364c-31.284-53.312-81.288-92.836-140.8-111.292c-1.38-0.428-2.872-0.064-3.9,0.952 c-27.684,27.296-62.084,48.592-70.684,53.736c-9.18-5.868-47.848-31.072-70.836-53.736c-1.024-1.016-2.528-1.38-3.9-0.952 c-59.52,18.46-109.52,57.984-140.792,111.296c-0.716,1.22-0.716,2.736,0,3.956c44.408,75.672,126.964,122.68,215.452,122.68 c88.492,0,171.052-47.008,215.46-122.68C466.176,376.1,466.176,374.584,465.456,373.364z M382.872,402.508 c0,2.156-2.052,3.804-4.204,3.804h-26.46c-2.156,0-4.508,1.852-4.508,4.012v27.364c0,2.152-1.152,3.796-3.308,3.796h-23.764 c-2.156,0-4.188-1.644-4.188-3.796v-27.364c-0.008-2.156-1.48-4.012-3.636-4.012h-27.6c-2.156,0-3.94-1.652-3.94-3.804v-23.56 c0-2.156,1.784-3.896,3.94-3.896h27.6c2.156,0,3.628-1.76,3.628-3.92v-27.396c0-2.156,2.032-3.856,4.188-3.856h23.508 c2.152,0,3.568,1.7,3.568,3.856v27.476c0,2.16,2.088,3.836,4.248,3.836h26.724c2.152,0,4.204,1.824,4.204,3.98V402.508z"/> </g> </g></symbol><symbol id="calendar" viewBox="0 0 512 512"><title>calendar</title><path d="m446 40h-46v-24c0-8.836-7.163-16-16-16s-16 7.164-16 16v24h-224v-24c0-8.836-7.163-16-16-16s-16 7.164-16 16v24h-46c-36.393 0-66 29.607-66 66v340c0 36.393 29.607 66 66 66h380c36.393 0 66-29.607 66-66v-340c0-36.393-29.607-66-66-66zm-380 32h46v16c0 8.836 7.163 16 16 16s16-7.164 16-16v-16h224v16c0 8.836 7.163 16 16 16s16-7.164 16-16v-16h46c18.748 0 34 15.252 34 34v38h-448v-38c0-18.748 15.252-34 34-34zm380 408h-380c-18.748 0-34-15.252-34-34v-270h448v270c0 18.748-15.252 34-34 34z"/></symbol><symbol id="gear" viewBox="0 0 512 512"><title>gear</title><path d="M429.948,415.806c7.811,7.811,7.811,20.475,0,28.285c-23.394,23.393-61.459,23.393-84.853,0l-7.122-7.122 c-1.874-1.875-4.762-2.39-7.355-1.312l-0.432,0.178c-2.518,1.04-4.187,3.442-4.187,6.092V452c0,33.084-26.916,60-60,60h-20 c-33.084,0-60-26.916-60-60v-10.073c0-2.649-1.669-5.052-4.252-6.118l-0.367-0.151c-2.594-1.078-5.482-0.563-7.355,1.312 l-7.122,7.122c-23.394,23.393-61.459,23.393-84.853,0L67.91,429.947c-11.333-11.331-17.574-26.398-17.574-42.426 c0-16.026,6.241-31.094,17.574-42.426l7.122-7.122c1.873-1.873,2.388-4.761,1.311-7.354l-0.161-0.391 c-1.057-2.561-3.458-4.229-6.108-4.229H60c-33.084,0-60-26.916-60-60v-20c0-33.084,26.916-60,60-60h10.074 c2.649,0,5.05-1.668,6.117-4.251l0.151-0.364c1.079-2.598,0.564-5.484-1.309-7.357l-7.123-7.123 c-11.333-11.332-17.574-26.399-17.574-42.426c0-16.027,6.241-31.095,17.574-42.427L82.051,67.91 c11.333-11.333,26.4-17.574,42.427-17.574c16.027,0,31.094,6.241,42.427,17.574l7.122,7.121c1.875,1.875,4.761,2.388,7.355,1.312 l0.432-0.178c2.518-1.04,4.187-3.442,4.187-6.092V60c0-33.084,26.916-60,60-60h20c33.084,0,60,26.916,60,60v10.073 c0,2.649,1.669,5.052,4.252,6.118l0.367,0.151c2.594,1.076,5.481,0.563,7.355-1.312l7.122-7.122c7.811-7.811,20.474-7.811,28.284,0 s7.811,20.475,0,28.285l-7.122,7.122c-13.36,13.357-33.356,17.275-50.953,9.979l-0.257-0.105C297.376,105.891,286,88.977,286,70.073 V60c0-11.028-8.972-20-20-20h-20c-11.028,0-20,8.972-20,20v10.073c0,18.903-11.376,35.817-28.982,43.089l-0.322,0.133 c-17.597,7.299-37.594,3.381-50.953-9.979l-7.123-7.122c-3.777-3.778-8.8-5.858-14.142-5.858c-5.342,0-10.364,2.08-14.142,5.858 l-14.142,14.142c-3.778,3.778-5.858,8.8-5.858,14.143c0,5.342,2.081,10.364,5.858,14.142l7.122,7.122 c13.367,13.366,17.279,33.379,9.967,50.983l-0.111,0.269C105.892,214.623,88.979,226,70.074,226H60c-11.028,0-20,8.972-20,20v20 c0,11.028,8.972,20,20,20h10.073c18.905,0,35.819,11.377,43.089,28.984l0.146,0.352c7.287,17.543,3.375,37.555-9.992,50.922 l-7.123,7.122c-3.777,3.777-5.857,8.8-5.857,14.142c0,5.343,2.08,10.364,5.857,14.142l14.143,14.144 c7.797,7.797,20.485,7.8,28.284-0.001l7.122-7.122c13.359-13.358,33.355-17.275,50.953-9.979l0.257,0.105 C214.624,406.109,226,423.023,226,441.927V452c0,11.028,8.972,20,20,20h20c11.028,0,20-8.972,20-20v-10.073 c0-18.903,11.376-35.817,28.982-43.089l0.323-0.133c17.597-7.297,37.594-3.379,50.953,9.979l7.122,7.122 c7.798,7.799,20.486,7.799,28.284,0C409.475,407.997,422.138,407.997,429.948,415.806z M452,186c-11.046,0-20,8.954-20,20 s8.954,20,20,20c11.028,0,20,8.972,20,20v20c0,11.028-8.972,20-20,20h-10.073c-18.905,0-35.819,11.377-43.098,29.006l-0.111,0.27 c-7.312,17.604-3.399,37.615,9.967,50.982c3.906,3.906,9.023,5.858,14.143,5.858c5.118,0,10.237-1.953,14.142-5.857 c7.811-7.811,7.811-20.474,0.001-28.284c-1.874-1.874-2.389-4.762-1.287-7.416l0.127-0.308c1.066-2.583,3.467-4.251,6.117-4.251H452 c33.084,0,60-26.916,60-60v-20C512,212.916,485.084,186,452,186z M256.496,287.983c-5.441,0.223-10.63-1.729-14.524-5.432 l-71.132-68.183c-7.976-7.644-20.635-7.376-28.278,0.599s-7.375,20.635,0.599,28.278l71.192,68.239 c11.259,10.704,25.831,16.516,41.267,16.516c0.826,0,1.654-0.017,2.484-0.05c16.353-0.658,31.37-7.734,42.287-19.928 c0.238-0.265,0.468-0.536,0.691-0.813L490.454,71.527c6.918-8.61,5.547-21.199-3.063-28.118c-8.612-6.919-21.2-5.547-28.118,3.063 L270.291,281.669C266.679,285.532,261.798,287.771,256.496,287.983z"/></symbol><symbol id="data-storage-device" viewBox="0 0 303.002 303.002"><title>data-storage-device</title><path d="M151.501,0c66.75,0,123.194,27.559,125.104,60.549c-1.91,32.987-58.354,60.553-125.104,60.553 c-66.752,0-123.191-27.56-125.104-60.553C28.31,27.559,84.749,0,151.501,0z"/><path d="M276.785,240.744c0,33.747-57.369,62.258-125.284,62.258S26.217,274.491,26.217,240.744v-29.771 c21.449,25.754,68.887,43.27,125.284,43.27s103.834-17.521,125.284-43.27V240.744z"/><path d="M276.785,179.688c0,33.746-57.369,62.258-125.284,62.258S26.217,213.434,26.217,179.688v-31.009 c21.449,25.748,68.887,43.259,125.284,43.259s103.834-17.522,125.284-43.259V179.688z"/><path d="M276.785,117.381c0,33.748-57.369,62.257-125.284,62.257s-125.284-28.51-125.284-62.257V90.135 c21.449,25.754,68.887,43.258,125.284,43.258s103.834-17.51,125.284-43.258V117.381z"/></symbol><symbol id="scrum" viewBox="0 0 64 64"><title>scrum</title><path d="m48.921 43h3.079v5c0 4.962-4.037 9-9 9h-27c-4.625 0-8.445-3.506-8.944-8h-4.018c.513 6.703 6.13 12 12.962 12h27c7.168 0 13-5.832 13-13v-5h3.079l-5.079-7.256z"/><path d="m15.079 21h-3.079v-5c0-4.962 4.037-9 9-9h27c4.625 0 8.445 3.506 8.944 8h4.018c-.513-6.703-6.13-12-12.962-12h-27c-7.168 0-13 5.832-13 13v5h-3.079l5.079 7.256z"/><path d="m41 11h2v2h-2z"/><path d="m53 17v-1c0-2.757-2.243-5-5-5h-3v2h3c1.654 0 3 1.346 3 3v1z"/><path d="m30.703 51-4.326-16.437c-.504.302-.987.635-1.435 1.011l-.86 7.734 3.327 1.109-1.229 2.459 3.3 4.125h1.223z"/><path d="m21 44v7h5.919l-3.1-3.875.771-1.541-2.673-.891.714-6.427c-1.028 1.672-1.631 3.631-1.631 5.734z"/><path d="m43 44c0-2.103-.603-4.062-1.631-5.734l.714 6.427-2.673.891.771 1.541-3.1 3.875h5.919z"/><path d="m37.819 46.875-1.229-2.459 3.327-1.109-.86-7.734c-.448-.376-.931-.709-1.435-1.011l-4.325 16.438h1.222z"/><path d="m35.786 33.685c-1.183-.435-2.454-.685-3.786-.685s-2.603.25-3.786.685l3.786 14.387z"/><circle cx="32" cy="23" r="8"/></symbol><symbol id="perfil" viewBox="0 0 512 512"><title>perfil</title><g> <g> <path d="M438,0H74C57.458,0,44,13.458,44,30v452c0,16.542,13.458,30,30,30h364c16.542,0,30-13.458,30-30V30 C468,13.458,454.542,0,438,0z M377,35.436l55.691,55.691H387c-5.514,0-10-4.486-10-10V35.436z M448,482c0,5.514-4.486,10-10,10H74 c-5.514,0-10-4.486-10-10V30c0-5.514,4.486-10,10-10h283v61.127c0,16.542,13.458,30,30,30h61V482z M448,78.151L389.849,20H438 c5.514,0,10,4.486,10,10V78.151z"/> </g> </g><g> <g> <path d="M407.699,188H296.282c-5.523,0-10,4.477-10,10s4.477,10,10,10h111.417c5.523,0,10-4.477,10-10S413.222,188,407.699,188z"/> </g> </g><g> <g> <path d="M303.35,142.93c-1.86-1.86-4.44-2.93-7.07-2.93s-5.21,1.07-7.07,2.93s-2.93,4.44-2.93,7.07s1.07,5.21,2.93,7.07 s4.44,2.93,7.07,2.93s5.21-1.07,7.07-2.93c1.86-1.86,2.93-4.44,2.93-7.07S305.21,144.79,303.35,142.93z"/> </g> </g><g> <g> <path d="M407.699,140h-71.493c-5.523,0-10,4.477-10,10s4.477,10,10,10h71.493c5.523,0,10-4.477,10-10S413.222,140,407.699,140z"/> </g> </g><g> <g> <path d="M407.699,236H299.365c-5.523,0-10,4.477-10,10s4.477,10,10,10h108.333c5.523,0,10-4.477,10-10S413.222,236,407.699,236z"/> </g> </g><g> <g> <path d="M410.269,284H104.301c-5.523,0-10,4.477-10,10s4.477,10,10,10h305.968c5.523,0,10-4.477,10-10S415.792,284,410.269,284z"/> </g> </g><g> <g> <path d="M407.698,332H104.301c-5.523,0-10,4.477-10,10s4.477,10,10,10h303.397c5.523,0,10-4.477,10-10S413.221,332,407.698,332z"/> </g> </g><g> <g> <path d="M410.269,380H104.301c-5.523,0-10,4.477-10,10s4.477,10,10,10h305.968c5.523,0,10-4.477,10-10S415.792,380,410.269,380z"/> </g> </g><g> <g> <path d="M417.34,430.93c-1.86-1.86-4.44-2.93-7.07-2.93s-5.21,1.07-7.07,2.93s-2.93,4.44-2.93,7.07s1.07,5.21,2.93,7.07 c1.86,1.86,4.44,2.93,7.07,2.93s5.21-1.07,7.07-2.93c1.86-1.86,2.93-4.44,2.93-7.07S419.2,432.79,417.34,430.93z"/> </g> </g><g> <g> <path d="M370.006,428H104.301c-5.523,0-10,4.477-10,10s4.477,10,10,10h265.705c5.523,0,10-4.477,10-10S375.529,428,370.006,428z"/> </g> </g><g> <g> <path d="M248.172,64H101.731c-5.523,0-10,4.477-10,10l-0.129,172c0,5.523,4.477,10,10,10h146.57c5.523,0,10-4.477,10-10V74 C258.172,68.477,253.695,64,248.172,64z M238.172,236h-126.57l0.129-12.731C113.35,201.346,131.692,184,154.021,184h41.732 c23.39,0,42.419,19.029,42.419,42.419V236z M158.887,148v-6.5c0-8.822,7.178-16,16-16c8.822,0,16,7.178,16,16v6.5 c0,8.822-7.178,16-16,16C166.065,164,158.887,156.822,158.887,148z M238.172,180.685c-8.618-7.999-19.489-13.589-31.545-15.717 c2.715-5.059,4.26-10.836,4.26-16.968v-6.5c0-19.851-16.149-36-36-36c-19.851,0-36,16.149-36,36v6.5 c0,6.132,1.545,11.909,4.26,16.968c-11.995,2.117-22.819,7.659-31.416,15.593V84h126.441V180.685z"/> </g> </g></symbol><symbol id="formato-de-arquivo-log" viewBox="0 0 548.291 548.291"><title>formato-de-arquivo-log</title><path d="M486.201,196.124h-13.166V132.59c0-0.396-0.062-0.795-0.115-1.196c-0.021-2.523-0.825-5-2.552-6.963L364.657,3.677 c-0.033-0.031-0.064-0.042-0.085-0.073c-0.63-0.707-1.364-1.292-2.143-1.795c-0.229-0.157-0.461-0.286-0.702-0.421 c-0.672-0.366-1.387-0.671-2.121-0.892c-0.2-0.055-0.379-0.136-0.577-0.188C358.23,0.118,357.401,0,356.562,0H96.757 C84.894,0,75.256,9.651,75.256,21.502v174.613H62.092c-16.971,0-30.732,13.756-30.732,30.733v159.812 c0,16.968,13.761,30.731,30.732,30.731h13.164V526.79c0,11.854,9.638,21.501,21.501,21.501h354.776 c11.853,0,21.501-9.647,21.501-21.501V417.392h13.166c16.966,0,30.729-13.764,30.729-30.731V226.854 C516.93,209.872,503.167,196.124,486.201,196.124z M96.757,21.502h249.054v110.009c0,5.939,4.817,10.75,10.751,10.75h94.972v53.861 H96.757V21.502z M317.816,303.427c0,47.77-28.973,76.746-71.558,76.746c-43.234,0-68.531-32.641-68.531-74.152 c0-43.679,27.887-76.319,70.906-76.319C293.389,229.702,317.816,263.213,317.816,303.427z M82.153,377.79V232.085h33.073v118.039 h57.944v27.66H82.153V377.79z M451.534,520.962H96.757v-103.57h354.776V520.962z M461.176,371.092 c-10.162,3.454-29.402,8.209-48.641,8.209c-26.589,0-45.833-6.698-59.24-19.664c-13.396-12.535-20.75-31.568-20.529-52.967 c0.214-48.436,35.448-76.108,83.229-76.108c18.814,0,33.292,3.688,40.431,7.139l-6.92,26.37 c-7.999-3.457-17.942-6.268-33.942-6.268c-27.449,0-48.209,15.567-48.209,47.134c0,30.049,18.807,47.771,45.831,47.771 c7.564,0,13.623-0.852,16.21-2.152v-30.488h-22.478v-25.723h54.258V371.092L461.176,371.092z"/><path d="M212.533,305.37c0,28.535,13.407,48.64,35.452,48.64c22.268,0,35.021-21.186,35.021-49.5 c0-26.153-12.539-48.655-35.237-48.655C225.504,255.854,212.533,277.047,212.533,305.37z"/></symbol><symbol id="remover-usuario" viewBox="0 0 512 512"><title>remover-usuario</title><g> <g> <path d="M407.672,280.596c-21.691-15.587-45.306-27.584-70.182-35.778C370.565,219.986,392,180.449,392,136 C392,61.01,330.991,0,256,0S120,61.01,120,136c0,44.504,21.488,84.084,54.633,108.911c-30.368,9.998-58.863,25.555-83.803,46.069 c-45.732,37.617-77.529,90.086-89.532,147.743c-3.762,18.066,0.745,36.622,12.363,50.908C25.222,503.847,42.365,512,60.693,512 H267c11.046,0,20-8.954,20-20c0-11.046-8.954-20-20-20H60.693c-8.538,0-13.689-4.766-15.999-7.606 c-3.989-4.905-5.533-11.29-4.236-17.519c20.756-99.695,108.691-172.521,210.24-174.977c1.759,0.068,3.526,0.102,5.302,0.102 c1.788,0,3.569-0.035,5.341-0.104c44.466,1.052,86.883,15.236,122.988,41.182c8.969,6.446,21.467,4.399,27.913-4.569 C418.688,299.539,416.642,287.042,407.672,280.596z M260.869,231.878c-1.621-0.03-3.244-0.045-4.869-0.045 c-1.614,0-3.228,0.016-4.84,0.046C200.465,229.35,160,187.312,160,136c0-52.935,43.065-96,96-96s96,43.065,96,96 C352,187.302,311.55,229.334,260.869,231.878z"/> </g> </g><g> <g> <path d="M455.285,427l50.857-50.857c7.811-7.811,7.811-20.475,0-28.285c-7.811-7.811-20.474-7.811-28.284,0L427,398.715 l-50.858-50.858c-7.811-7.811-20.474-7.811-28.284,0c-7.81,7.811-7.811,20.475,0,28.285L398.715,427l-50.857,50.857 c-7.811,7.811-7.811,20.475,0,28.285C351.763,510.048,356.881,512,362,512c5.119,0,10.237-1.952,14.142-5.857L427,455.285 l50.858,50.858C481.763,510.048,486.881,512,492,512c5.119,0,10.237-1.952,14.142-5.857c7.811-7.811,7.811-20.475,0-28.285 L455.285,427z"/> </g> </g></symbol><symbol id="edit" viewBox="0 0 24 24"><title>edit</title><path d="m23.503 13.337-1.341-1.341c-.662-.66-1.738-.661-2.4 0l-7.372 7.372c-.104.104-.176.238-.205.383l-.67 3.351c-.093.466.263.898.735.898.049 0 .098-.005.147-.015l3.351-.67c.145-.029.278-.1.383-.205l7.372-7.372c.662-.662.662-1.738 0-2.401z"/><path d="m12.25 15h-7.5c-.414 0-.75-.336-.75-.75s.336-.75.75-.75h7.5c.414 0 .75.336.75.75s-.336.75-.75.75z"/><path d="m11.25 18h-6.5c-.414 0-.75-.336-.75-.75s.336-.75.75-.75h6.5c.414 0 .75.336.75.75s-.336.75-.75.75z"/><path d="m9.25 21h-6.5c-1.517 0-2.75-1.233-2.75-2.75v-15.5c0-1.517 1.233-2.75 2.75-2.75h11.5c1.517 0 2.75 1.233 2.75 2.75v8.5c0 .414-.336.75-.75.75s-.75-.336-.75-.75v-8.5c0-.689-.561-1.25-1.25-1.25h-11.5c-.689 0-1.25.561-1.25 1.25v15.5c0 .689.561 1.25 1.25 1.25h6.5c.414 0 .75.336.75.75s-.336.75-.75.75z"/><circle cx="8.5" cy="5" r="2"/><path d="m11.75 12h-6.5c-.414 0-.75-.336-.75-.75v-.5c0-1.517 1.233-2.75 2.75-2.75h2.5c1.517 0 2.75 1.233 2.75 2.75v.5c0 .414-.336.75-.75.75z"/></symbol><symbol id="edit-1" viewBox="0 0 24 24"><title>edit-1</title><path xmlns="http://www.w3.org/2000/svg" d="m23.503 13.337-1.341-1.341c-.662-.66-1.738-.661-2.4 0l-7.372 7.372c-.104.104-.176.238-.205.383l-.67 3.351c-.093.466.263.898.735.898.049 0 .098-.005.147-.015l3.351-.67c.145-.029.278-.1.383-.205l7.372-7.372c.662-.662.662-1.738 0-2.401z" fill="#028dce" data-original="#000000" style="" class=""/><path xmlns="http://www.w3.org/2000/svg" d="m12.25 15h-7.5c-.414 0-.75-.336-.75-.75s.336-.75.75-.75h7.5c.414 0 .75.336.75.75s-.336.75-.75.75z" fill="#028dce" data-original="#000000" style="" class=""/><path xmlns="http://www.w3.org/2000/svg" d="m11.25 18h-6.5c-.414 0-.75-.336-.75-.75s.336-.75.75-.75h6.5c.414 0 .75.336.75.75s-.336.75-.75.75z" fill="#028dce" data-original="#000000" style="" class=""/><path xmlns="http://www.w3.org/2000/svg" d="m9.25 21h-6.5c-1.517 0-2.75-1.233-2.75-2.75v-15.5c0-1.517 1.233-2.75 2.75-2.75h11.5c1.517 0 2.75 1.233 2.75 2.75v8.5c0 .414-.336.75-.75.75s-.75-.336-.75-.75v-8.5c0-.689-.561-1.25-1.25-1.25h-11.5c-.689 0-1.25.561-1.25 1.25v15.5c0 .689.561 1.25 1.25 1.25h6.5c.414 0 .75.336.75.75s-.336.75-.75.75z" fill="#028dce" data-original="#000000" style="" class=""/><circle xmlns="http://www.w3.org/2000/svg" cx="8.5" cy="5" r="2" fill="#028dce" data-original="#000000" style="" class=""/><path xmlns="http://www.w3.org/2000/svg" d="m11.75 12h-6.5c-.414 0-.75-.336-.75-.75v-.5c0-1.517 1.233-2.75 2.75-2.75h2.5c1.517 0 2.75 1.233 2.75 2.75v.5c0 .414-.336.75-.75.75z" fill="#028dce" data-original="#000000" style="" class=""/></symbol><symbol id="remove-user" viewBox="0 0 512 512"><title>remove-user</title><g xmlns="http://www.w3.org/2000/svg"> <g> <path d="M407.672,280.596c-21.691-15.587-45.306-27.584-70.182-35.778C370.565,219.986,392,180.449,392,136 C392,61.01,330.991,0,256,0S120,61.01,120,136c0,44.504,21.488,84.084,54.633,108.911c-30.368,9.998-58.863,25.555-83.803,46.069 c-45.732,37.617-77.529,90.086-89.532,147.743c-3.762,18.066,0.745,36.622,12.363,50.908C25.222,503.847,42.365,512,60.693,512 H267c11.046,0,20-8.954,20-20c0-11.046-8.954-20-20-20H60.693c-8.538,0-13.689-4.766-15.999-7.606 c-3.989-4.905-5.533-11.29-4.236-17.519c20.756-99.695,108.691-172.521,210.24-174.977c1.759,0.068,3.526,0.102,5.302,0.102 c1.788,0,3.569-0.035,5.341-0.104c44.466,1.052,86.883,15.236,122.988,41.182c8.969,6.446,21.467,4.399,27.913-4.569 C418.688,299.539,416.642,287.042,407.672,280.596z M260.869,231.878c-1.621-0.03-3.244-0.045-4.869-0.045 c-1.614,0-3.228,0.016-4.84,0.046C200.465,229.35,160,187.312,160,136c0-52.935,43.065-96,96-96s96,43.065,96,96 C352,187.302,311.55,229.334,260.869,231.878z" fill="#028dce" data-original="#000000" style="" class=""/> </g> </g><g xmlns="http://www.w3.org/2000/svg"> <g> <path d="M455.285,427l50.857-50.857c7.811-7.811,7.811-20.475,0-28.285c-7.811-7.811-20.474-7.811-28.284,0L427,398.715 l-50.858-50.858c-7.811-7.811-20.474-7.811-28.284,0c-7.81,7.811-7.811,20.475,0,28.285L398.715,427l-50.857,50.857 c-7.811,7.811-7.811,20.475,0,28.285C351.763,510.048,356.881,512,362,512c5.119,0,10.237-1.952,14.142-5.857L427,455.285 l50.858,50.858C481.763,510.048,486.881,512,492,512c5.119,0,10.237-1.952,14.142-5.857c7.811-7.811,7.811-20.475,0-28.285 L455.285,427z" fill="#028dce" data-original="#000000" style="" class=""/> </g> </g></symbol><symbol id="log-file-format" viewBox="0 0 548.291 548.291"><title>log-file-format</title><path d="M486.201,196.124h-13.166V132.59c0-0.396-0.062-0.795-0.115-1.196c-0.021-2.523-0.825-5-2.552-6.963L364.657,3.677 c-0.033-0.031-0.064-0.042-0.085-0.073c-0.63-0.707-1.364-1.292-2.143-1.795c-0.229-0.157-0.461-0.286-0.702-0.421 c-0.672-0.366-1.387-0.671-2.121-0.892c-0.2-0.055-0.379-0.136-0.577-0.188C358.23,0.118,357.401,0,356.562,0H96.757 C84.894,0,75.256,9.651,75.256,21.502v174.613H62.092c-16.971,0-30.732,13.756-30.732,30.733v159.812 c0,16.968,13.761,30.731,30.732,30.731h13.164V526.79c0,11.854,9.638,21.501,21.501,21.501h354.776 c11.853,0,21.501-9.647,21.501-21.501V417.392h13.166c16.966,0,30.729-13.764,30.729-30.731V226.854 C516.93,209.872,503.167,196.124,486.201,196.124z M96.757,21.502h249.054v110.009c0,5.939,4.817,10.75,10.751,10.75h94.972v53.861 H96.757V21.502z M317.816,303.427c0,47.77-28.973,76.746-71.558,76.746c-43.234,0-68.531-32.641-68.531-74.152 c0-43.679,27.887-76.319,70.906-76.319C293.389,229.702,317.816,263.213,317.816,303.427z M82.153,377.79V232.085h33.073v118.039 h57.944v27.66H82.153V377.79z M451.534,520.962H96.757v-103.57h354.776V520.962z M461.176,371.092 c-10.162,3.454-29.402,8.209-48.641,8.209c-26.589,0-45.833-6.698-59.24-19.664c-13.396-12.535-20.75-31.568-20.529-52.967 c0.214-48.436,35.448-76.108,83.229-76.108c18.814,0,33.292,3.688,40.431,7.139l-6.92,26.37 c-7.999-3.457-17.942-6.268-33.942-6.268c-27.449,0-48.209,15.567-48.209,47.134c0,30.049,18.807,47.771,45.831,47.771 c7.564,0,13.623-0.852,16.21-2.152v-30.488h-22.478v-25.723h54.258V371.092L461.176,371.092z" fill="#028dce" data-original="#000000" style="" class=""/><path d="M212.533,305.37c0,28.535,13.407,48.64,35.452,48.64c22.268,0,35.021-21.186,35.021-49.5 c0-26.153-12.539-48.655-35.237-48.655C225.504,255.854,212.533,277.047,212.533,305.37z" fill="#028dce" data-original="#000000" style="" class=""/></symbol></svg>